<svg width="240" height="156" viewBox="0 0 240 156" fill="none" xmlns="http://www.w3.org/2000/svg">
<path d="M78.7451 32.9096L78.7961 32.9354L78.8486 32.9582C81.7636 34.2267 83.8175 35.3063 85.2031 36.2328C86.6375 37.192 87.1261 37.8381 87.2617 38.1455C87.2656 38.1544 87.2696 38.1628 87.2735 38.1709C87.3102 38.2475 87.3344 38.2981 87.1654 38.5418C86.8874 38.9428 86.2842 39.4777 85.2119 40.1721C84.1941 40.8311 82.9521 41.5121 81.5278 42.293L81.4318 42.3457C79.9945 43.1337 78.4064 44.0077 76.8551 44.9888C73.7879 46.9287 70.6034 49.4435 68.8379 52.9397C67.0449 56.4904 67.1041 60.5298 67.5954 64.0955C67.8439 65.8998 68.2158 67.6611 68.5643 69.2541C68.6094 69.46 68.6539 69.6624 68.6976 69.8613C68.9992 71.233 69.2641 72.4383 69.429 73.5041C69.624 74.7642 69.6277 75.5463 69.5213 75.9892C69.4971 76.0897 69.4733 76.1455 69.4598 76.1718C69.4474 76.1768 69.4285 76.1835 69.4012 76.1909C69.0942 76.2744 68.2836 76.3032 66.5891 75.7942C64.9838 75.3121 62.8308 74.4255 59.9782 73.0172C52.1724 67.5415 46.8874 62.0294 44.2375 56.6111C41.6248 51.2688 41.5299 45.9482 44.2653 40.5313C49.6778 29.8126 64.9387 25.9379 78.7451 32.9096ZM69.4484 76.1913C69.4484 76.1912 69.4489 76.1905 69.4499 76.1892L69.4484 76.1913ZM69.4752 76.1649C69.4777 76.1632 69.4792 76.1624 69.4794 76.1623C69.4798 76.1623 69.4785 76.1632 69.4752 76.1649Z" fill="#FDFBF7" stroke="#C7F4C2" stroke-width="4"/>
<path d="M10.7214 28.1395L11.3112 28.0906C23.1058 27.1147 34.9103 29.8509 45.0728 35.9161V35.9161" stroke="#C7F4C2" stroke-width="4"/>
<path d="M7.13352 34.8735L8.11715 34.789C19.7753 33.7864 31.4574 36.4234 41.5544 42.3367V42.3367" stroke="#C7F4C2" stroke-width="4"/>
<path d="M100.552 68.9542C97.1852 75.6212 93.4744 80.8147 88.7769 83.3952C84.2586 85.8773 78.4065 86.1538 70.1383 81.9787C59.9067 76.8121 56.1164 62.5421 62.5648 49.7721C69.0039 37.0205 82.7073 31.5967 92.9342 36.7255C101.529 41.6335 104.753 46.5237 105.375 51.4245C106.024 56.533 103.95 62.2237 100.552 68.9542Z" fill="#FDFBF7" stroke="#C7F4C2" stroke-width="4"/>
<ellipse cx="86.5026" cy="61.7931" rx="18.8647" ry="25.9605" transform="rotate(-155.936 86.5026 61.7931)" fill="white"/>
<path d="M102.841 70.1098C99.6121 76.5033 94.7989 81.249 89.7127 83.7989C84.6262 86.3488 79.4008 86.6557 75.0959 84.4819C70.791 82.3081 67.936 77.9208 66.9685 72.3139C66.0011 66.7071 66.9628 60.0165 70.1913 53.623C73.4198 47.2295 78.233 42.4838 83.3192 39.9339C88.4057 37.384 93.6311 37.0771 97.936 39.2509C102.241 41.4247 105.096 45.812 106.063 51.4189C107.031 57.0257 106.069 63.7163 102.841 70.1098Z" fill="#FDFBF7" stroke="#C7F4C2" stroke-width="4"/>
<path d="M90.2467 54.4175C91.0505 52.8257 92.7016 52.3952 93.7772 52.9383C94.8528 53.4814 95.4865 55.0657 94.6826 56.6575C93.8788 58.2494 92.2277 58.6799 91.1522 58.1367C90.0766 57.5936 89.4429 56.0094 90.2467 54.4175Z" fill="#C7F4C2" stroke="#C7F4C2" stroke-width="4"/>
<path d="M82.9308 68.9032C83.7346 67.3114 85.3857 66.8809 86.4613 67.424C87.5368 67.9671 88.1705 69.5514 87.3667 71.1432C86.5629 72.735 84.9118 73.1656 83.8362 72.6224C82.7607 72.0793 82.127 70.4951 82.9308 68.9032Z" fill="#C7F4C2" stroke="#C7F4C2" stroke-width="4"/>
<path d="M133.531 64.3431L133.596 64.3104L133.659 64.273C151.498 53.6471 172.505 57.3149 180.899 71.4077C189.293 85.5004 182.514 105.718 164.674 116.344L164.624 116.374L164.576 116.407C162.025 118.134 160.062 119.193 158.557 119.752C157.035 120.318 156.194 120.295 155.756 120.166C155.401 120.062 155.046 119.813 154.683 119.102C154.293 118.34 153.99 117.217 153.749 115.675C153.511 114.152 153.358 112.39 153.189 110.403L153.179 110.289C153.014 108.357 152.834 106.244 152.542 104.087C151.95 99.6993 150.88 94.9432 148.394 90.7689C145.91 86.5996 142.245 83.3678 138.674 80.725C136.923 79.4291 135.159 78.2495 133.544 77.17L133.434 77.0963C131.769 75.983 130.292 74.9919 129.066 74.0437C127.824 73.0837 126.978 72.2708 126.49 71.5577C126.033 70.8893 125.988 70.4604 126.062 70.1143C126.154 69.6875 126.523 68.958 127.74 67.9192C128.942 66.8928 130.801 65.7096 133.531 64.3431Z" fill="#FDFBF7" stroke="#C7F4C2" stroke-width="4"/>
<path d="M218.085 42.9917L217.72 43.6871C210.421 57.5913 198.957 68.8654 184.933 75.9316V75.9316" stroke="#C7F4C2" stroke-width="4"/>
<path d="M213.096 34.1794L212.491 35.3413C205.319 49.1116 194.053 60.3192 180.246 67.4201V67.4201" stroke="#C7F4C2" stroke-width="4"/>
<path d="M115.004 70.7571L115.09 70.7165L115.171 70.6681C128.629 62.6519 147.681 68.7987 157.527 85.3294C167.368 101.851 163.709 121.517 150.27 129.542C138.745 135.982 130.753 136.191 124.524 133.224C118.091 130.159 113.011 123.491 107.891 114.895C102.823 106.386 99.4128 97.7526 99.8263 90.1105C100.03 86.3381 101.166 82.7967 103.526 79.5755C105.896 76.3405 109.574 73.331 115.004 70.7571Z" fill="#C7F4C2" stroke="#C7F4C2" stroke-width="4"/>
<path d="M104.97 116.635C100.042 108.362 98.1117 99.455 98.8906 91.791C99.6695 84.1268 103.125 77.8439 108.842 74.4388C114.559 71.0336 121.729 70.9873 128.839 73.9525C135.949 76.9177 142.862 82.8567 147.79 91.1302C152.718 99.4038 154.648 108.311 153.869 115.975C153.09 123.639 149.634 129.922 143.918 133.327C138.201 136.732 131.03 136.778 123.92 133.813C116.81 130.848 109.898 124.909 104.97 116.635Z" fill="#FDFBF7" stroke="#C7F4C2" stroke-width="4"/>
<path d="M133.675 110.275C134.628 111.875 134.104 113.945 132.503 114.898L103.123 132.398C101.523 133.352 99.4526 132.827 98.4994 131.227C97.5462 129.626 98.0708 127.556 99.6711 126.603L129.052 109.103C130.652 108.15 132.722 108.675 133.675 110.275Z" fill="#FDFBF7" stroke="#C7F4C2" stroke-width="4"/>
<path d="M121.341 91.5275C122.295 93.1278 121.77 95.1978 120.17 96.151L90.7892 113.651C89.1889 114.604 87.1189 114.08 86.1657 112.479C85.2125 110.879 85.737 108.809 87.3373 107.856L116.718 90.3558C118.318 89.4026 120.388 89.9272 121.341 91.5275Z" fill="#FDFBF7" stroke="#C7F4C2" stroke-width="4"/>
</svg>
