<svg width="257" height="257" viewBox="0 0 257 257" fill="none" xmlns="http://www.w3.org/2000/svg">
<path fill-rule="evenodd" clip-rule="evenodd" d="M145.806 50.1594C146.623 47.3663 149.549 45.7643 152.342 46.5811C155.135 47.398 156.737 50.3244 155.92 53.1175L152.878 63.5214C152.061 66.3144 149.134 67.9165 146.341 67.0996C143.548 66.2827 141.946 63.3563 142.763 60.5632L145.806 50.1594ZM151.219 50.4203C150.547 50.2235 149.842 50.6094 149.645 51.2822L146.602 61.686C146.406 62.3588 146.791 63.0637 147.464 63.2604C148.137 63.4572 148.842 63.0713 149.039 62.3985L152.081 51.9947C152.278 51.3219 151.892 50.6171 151.219 50.4203ZM74.2184 131.297C65.4568 107.225 77.8685 80.6082 101.941 71.8466C126.013 63.0851 152.63 75.4968 161.391 99.569C170.153 123.641 157.741 150.258 133.669 159.02C109.597 167.781 82.9799 155.369 74.2184 131.297ZM100.573 68.0879C74.4245 77.605 60.9425 106.517 70.4596 132.665C79.9767 158.813 108.889 172.296 135.037 162.778C143.633 159.65 150.86 154.425 156.351 147.892L164.733 151.8C165.508 154.476 167.391 156.816 170.114 158.085L195.978 170.146C200.983 172.48 206.933 170.314 209.267 165.309L211.867 159.732C214.201 154.727 212.036 148.777 207.03 146.443L181.166 134.382C178.443 133.112 175.44 133.174 172.892 134.301L165.737 130.965C169.087 120.65 169.147 109.182 165.15 98.2009C155.633 72.0528 126.721 58.5707 100.573 68.0879ZM169.27 137.026L164.347 134.73C162.897 138.225 161.057 141.554 158.86 144.648L164.491 147.274C164.64 146.436 164.9 145.604 165.277 144.796L167.877 139.219C168.254 138.412 168.724 137.678 169.27 137.026ZM137.464 101.834C138.223 101.032 138.189 99.7659 137.386 99.0065C136.584 98.247 135.319 98.2816 134.559 99.0837L122.497 111.824C121.976 112.374 121.811 113.171 122.07 113.883C122.329 114.595 122.968 115.099 123.721 115.185L141.15 117.191C142.247 117.318 143.239 116.53 143.365 115.433C143.492 114.336 142.704 113.344 141.607 113.218L128.152 111.669L137.464 101.834ZM92.2437 115.437C92.1175 116.534 92.9046 117.526 94.002 117.653L107.457 119.201L98.1453 129.036C97.3859 129.838 97.4205 131.104 98.2226 131.864C99.0246 132.623 100.291 132.589 101.05 131.786L113.112 119.047C113.633 118.497 113.798 117.699 113.539 116.988C113.28 116.276 112.641 115.771 111.888 115.685L94.4593 113.679C93.362 113.553 92.37 114.34 92.2437 115.437ZM86.5058 126.825C80.2143 109.539 89.1268 90.4259 106.412 84.1344C123.698 77.8429 142.811 86.7555 149.103 104.041C155.394 121.327 146.482 140.44 129.196 146.731C111.91 153.023 92.7972 144.11 86.5058 126.825ZM105.044 80.3756C85.6828 87.4227 75.6999 108.831 82.747 128.193C89.794 147.554 111.202 157.537 130.564 150.49C149.926 143.443 159.908 122.035 152.861 102.673C145.814 83.3115 124.406 73.3286 105.044 80.3756ZM173.303 60.7653C171.524 58.4627 168.214 58.0387 165.912 59.8182L157.335 66.4466C155.032 68.2261 154.608 71.5353 156.388 73.8379C158.167 76.1405 161.477 76.5646 163.779 74.785L172.356 68.1566C174.659 66.3771 175.083 63.0679 173.303 60.7653ZM168.358 62.9832C168.913 62.5546 169.71 62.6567 170.138 63.2113C170.567 63.7659 170.465 64.563 169.91 64.9916L161.333 71.6201C160.779 72.0487 159.982 71.9465 159.553 71.3919C159.124 70.8373 159.226 70.0402 159.781 69.6116L168.358 62.9832ZM67.8202 165.301C65.4732 167.022 64.9655 170.319 66.6861 172.666C68.4067 175.013 71.7041 175.521 74.051 173.8L82.793 167.391C85.14 165.671 85.6477 162.373 83.9271 160.027C82.2065 157.68 78.9091 157.172 76.5622 158.892L67.8202 165.301ZM69.912 170.301C69.4976 169.736 69.6199 168.942 70.1852 168.527L78.9272 162.118C79.4925 161.704 80.2867 161.826 80.7012 162.392C81.1156 162.957 80.9933 163.751 80.428 164.166L71.686 170.575C71.1207 170.989 70.3265 170.867 69.912 170.301ZM87.1707 187.533C84.3992 186.645 82.8718 183.679 83.7592 180.908L87.0645 170.584C87.9518 167.813 90.9179 166.286 93.6894 167.173C96.4609 168.06 97.9883 171.026 97.1009 173.798L93.7956 184.121C92.9083 186.893 89.9422 188.42 87.1707 187.533ZM87.5687 182.128C87.3549 182.795 87.7228 183.51 88.3904 183.723C89.058 183.937 89.7724 183.569 89.9861 182.902L93.2914 172.578C93.5052 171.911 93.1373 171.196 92.4697 170.982C91.8021 170.769 91.0877 171.137 90.874 171.804L87.5687 182.128Z" fill="#C7F4C2"/>
</svg>
