<svg width="31" height="31" viewBox="0 0 31 31" fill="none" xmlns="http://www.w3.org/2000/svg">
<circle cx="15.5" cy="15.5" r="15" fill="#E03E27" stroke="#FDFBF7"/>
<path fill-rule="evenodd" clip-rule="evenodd" d="M18.0402 7.05126C19.0502 7.45326 19.3592 8.85326 19.7722 9.30326C20.1852 9.75326 20.7762 9.90626 21.1032 9.90626C22.8412 9.90626 24.2502 11.3153 24.2502 13.0523V18.8473C24.2502 21.1773 22.3602 23.0673 20.0302 23.0673H9.97024C7.63924 23.0673 5.75024 21.1773 5.75024 18.8473V13.0523C5.75024 11.3153 7.15924 9.90626 8.89724 9.90626C9.22324 9.90626 9.81424 9.75326 10.2282 9.30326C10.6412 8.85326 10.9492 7.45326 11.9592 7.05126C12.9702 6.64926 17.0302 6.64926 18.0402 7.05126Z" stroke="#FDFBF7" stroke-width="1.5" stroke-linecap="round" stroke-linejoin="round"/>
<path opacity="0.4" d="M20.4957 12.7H20.5047" stroke="#FDFBF7" stroke-width="2" stroke-linecap="round" stroke-linejoin="round"/>
<path opacity="0.4" fill-rule="evenodd" clip-rule="evenodd" d="M18.179 16.3279C18.179 14.5719 16.756 13.1489 15 13.1489C13.244 13.1489 11.821 14.5719 11.821 16.3279C11.821 18.0839 13.244 19.5069 15 19.5069C16.756 19.5069 18.179 18.0839 18.179 16.3279Z" stroke="#FDFBF7" stroke-width="1.5" stroke-linecap="round" stroke-linejoin="round"/>
</svg>
