<svg width="21" height="21" viewBox="0 0 21 21" fill="none" xmlns="http://www.w3.org/2000/svg">
<g clip-path="url(#clip0_494_7961)">
<path d="M17.2501 7.49998C17.2584 6.29513 16.9441 5.11 16.3397 4.06765C15.7354 3.0253 14.863 2.16371 13.8132 1.57233C12.7635 0.98096 11.5745 0.681357 10.3699 0.704629C9.16521 0.7279 7.98874 1.0732 6.96259 1.70468C5.93644 2.33615 5.09802 3.23079 4.53437 4.29571C3.97072 5.36062 3.70239 6.557 3.75724 7.76064C3.81209 8.96428 4.18812 10.1313 4.84628 11.1405C5.50444 12.1498 6.42075 12.9644 7.50008 13.5V15.75C7.50008 15.9489 7.5791 16.1397 7.71975 16.2803C7.86041 16.421 8.05117 16.5 8.25008 16.5H12.7501C12.949 16.5 13.1398 16.421 13.2804 16.2803C13.4211 16.1397 13.5001 15.9489 13.5001 15.75V13.5C14.6213 12.9476 15.5662 12.0934 16.2287 11.0335C16.8911 9.97356 17.2449 8.74989 17.2501 7.49998V7.49998Z" stroke="#E4DFD3" stroke-width="1.5" stroke-linecap="round" stroke-linejoin="round"/>
<path d="M7.5 20.25H13.5" stroke="#E4DFD3" stroke-width="1.5" stroke-linecap="round" stroke-linejoin="round"/>
</g>
<defs>
<clipPath id="clip0_494_7961">
<rect width="21" height="21" fill="white"/>
</clipPath>
</defs>
</svg>
