<svg width="257" height="257" viewBox="0 0 257 257" fill="none" xmlns="http://www.w3.org/2000/svg">
<path fill-rule="evenodd" clip-rule="evenodd" d="M116.039 70.5635C117.201 67.8954 115.98 64.7907 113.312 63.629L103.373 59.3018C100.705 58.1401 97.6003 59.3613 96.4385 62.0294C95.2768 64.6976 96.498 67.8023 99.1662 68.964L109.105 73.2912C111.773 74.4529 114.878 73.2317 116.039 70.5635ZM111.715 67.2964C112.357 67.5762 112.652 68.3241 112.372 68.9667C112.092 69.6094 111.344 69.9036 110.701 69.6237L100.763 65.2965C100.12 65.0167 99.8262 64.2689 100.106 63.6262C100.386 62.9835 101.134 62.6894 101.776 62.9692L111.715 67.2964ZM57.5907 92.1384C52.4009 94.0274 49.725 99.7658 51.6139 104.956L83.0797 191.407C84.8227 196.196 89.8434 198.844 94.6862 197.741L67.2246 122.291C65.3357 117.101 68.0115 111.363 73.2013 109.474L145.244 83.252C150.434 81.3631 156.173 84.039 158.062 89.2287L158.982 91.7589L164.822 89.6336L161.817 81.3777C159.928 76.1879 154.19 73.5121 149 75.401L121.204 85.5178C117.633 86.8175 113.687 86.6097 110.272 84.9422L100.035 79.943C97.5963 78.7519 94.7778 78.6034 92.227 79.5318L57.5907 92.1384ZM168.581 88.2655L165.576 80.0096C162.931 72.7439 154.897 68.9977 147.632 71.6422L119.836 81.759C117.285 82.6874 114.467 82.539 112.028 81.3479L101.791 76.3487C98.3759 74.6811 94.43 74.4733 90.859 75.7731L56.2226 88.3797C48.9569 91.0242 45.2107 99.058 47.8552 106.324L79.321 192.775C81.9655 200.041 89.9993 203.787 97.265 201.143L129.281 189.49C135.214 202.793 150.519 209.428 164.418 204.369C178.318 199.31 185.777 184.39 181.771 170.385L197.847 164.534C205.113 161.889 208.859 153.855 206.214 146.59L187.855 96.1485C185.211 88.8829 177.177 85.1366 169.911 87.7811L168.581 88.2655ZM180.403 166.626L196.479 160.775C201.669 158.886 204.344 153.148 202.456 147.958L184.096 97.5166C182.208 92.3268 176.469 89.651 171.279 91.5399L87.7994 121.924C82.6096 123.813 79.9337 129.551 81.8227 134.741L103.602 194.579L127.913 185.731C123.906 171.726 131.366 156.806 145.265 151.747C159.165 146.688 174.47 153.323 180.403 166.626ZM123.231 64.1826C120.51 65.2129 119.139 68.2544 120.169 70.976C121.199 73.6976 124.241 75.0687 126.962 74.0384L137.1 70.2008C139.821 69.1706 141.192 66.1291 140.162 63.4075C139.132 60.6859 136.09 59.3148 133.369 60.345L123.231 64.1826ZM123.91 69.5599C123.662 68.9043 123.992 68.1717 124.647 67.9236L134.785 64.086C135.441 63.8378 136.173 64.1681 136.421 64.8236C136.669 65.4792 136.339 66.2118 135.684 66.4599L125.546 70.2975C124.89 70.5457 124.158 70.2154 123.91 69.5599ZM132.289 186.266C127.756 173.811 134.178 160.039 146.633 155.505C159.089 150.972 172.861 157.394 177.395 169.849C181.928 182.305 175.506 196.077 163.05 200.611C150.595 205.144 136.823 198.722 132.289 186.266ZM145.697 167.552C144.753 164.957 146.091 162.088 148.686 161.144C151.28 160.199 154.15 161.537 155.094 164.132L159.198 175.408C160.143 178.003 158.805 180.872 156.21 181.817C153.615 182.761 150.746 181.423 149.801 178.828L145.697 167.552ZM150.054 164.902C149.535 165.091 149.267 165.665 149.456 166.184L153.56 177.46C153.749 177.979 154.323 178.247 154.842 178.058C155.361 177.869 155.628 177.295 155.44 176.776L151.335 165.5C151.146 164.981 150.573 164.713 150.054 164.902ZM160.998 194.972C158.403 195.917 155.534 194.579 154.59 191.984C153.645 189.389 154.983 186.52 157.578 185.576C160.173 184.631 163.042 185.969 163.987 188.564C164.931 191.159 163.593 194.028 160.998 194.972ZM158.348 190.616C158.537 191.135 159.111 191.403 159.63 191.214C160.149 191.025 160.417 190.451 160.228 189.932C160.039 189.413 159.465 189.145 158.946 189.334C158.427 189.523 158.16 190.097 158.348 190.616Z" fill="#C7F4C2"/>
</svg>
