<svg width="218" height="195" viewBox="0 0 218 195" fill="none" xmlns="http://www.w3.org/2000/svg">
<path d="M207.28 41.7096L152.656 31.2423C147.232 30.2029 141.992 33.7575 140.953 39.1817L125.902 117.725C125.311 120.811 126.204 123.995 128.315 126.323L153.719 154.345C157.022 157.988 162.482 158.689 166.598 155.999L196.156 136.684C198.426 135.2 199.996 132.858 200.506 130.195L215.22 53.4129C216.259 47.9887 212.704 42.749 207.28 41.7096Z" fill="#C7F4C2"/>
<path d="M166.68 60.4742C161.945 59.4627 157.294 62.4426 156.292 67.131C155.484 70.9156 155.065 80.2186 167.895 92.4541C168.126 92.6716 168.411 92.8217 168.721 92.8878C169.03 92.954 169.352 92.9337 169.651 92.8293C186.361 86.9046 189.781 78.2427 190.589 74.4581C191.591 69.7696 188.563 65.1493 183.828 64.1378C179.094 63.1263 174.155 67.4506 174.155 67.4506C174.155 67.4506 171.415 61.4857 166.68 60.4742Z" fill="white"/>
<circle cx="161.507" cy="136.031" r="6.79764" fill="#FDFBF7"/>
<path d="M87.049 3.52508L10.7211 31.1713C4.48988 33.4283 1.26809 40.3094 3.52508 46.5406L41.6919 151.915C42.976 155.46 45.8519 158.195 49.4569 159.301L102.214 175.477C107.856 177.207 113.917 174.579 116.511 169.279L139.178 122.963C140.608 120.04 140.79 116.662 139.682 113.602L102.418 10.7212C100.161 4.48989 93.2802 1.26809 87.049 3.52508Z" fill="#FDFBF7" stroke="#C7F4C2" stroke-width="4"/>
<path d="M64.0315 58.4027C64.6257 58.1696 65.0751 57.6697 65.244 57.0541L65.2443 57.0531L65.2469 57.0438C65.2484 57.0384 65.2505 57.0311 65.2531 57.0221C65.2563 57.0112 65.2602 56.9978 65.2648 56.9819C65.282 56.9238 65.3095 56.8327 65.3477 56.7127C65.4241 56.4725 65.5431 56.1176 65.7072 55.6797C66.0368 54.8006 66.5423 53.6044 67.2427 52.3367C68.6797 49.7359 70.7625 47.15 73.5405 46.0599C79.3859 43.7661 85.9329 46.6054 88.1862 52.3476C89.1562 54.8196 90.3574 59.3033 89.3898 65.7506C88.4204 72.21 85.2551 80.7654 77.2919 91.337C77.2246 91.4246 77.1347 91.4922 77.0318 91.5325C76.929 91.5729 76.8171 91.5845 76.7083 91.5661C63.6806 89.2314 55.5415 85.1119 50.4378 81.0356C45.3437 76.9669 43.175 72.8629 42.205 70.391C39.9517 64.6487 42.8205 58.1146 48.6659 55.8208C51.444 54.7307 54.7296 55.21 57.5518 56.1395C58.9275 56.5925 60.1116 57.1257 60.9511 57.546C61.3692 57.7554 61.6978 57.9347 61.9172 58.0588C62.0268 58.1208 62.1089 58.1689 62.161 58.1999C62.1871 58.2154 62.2056 58.2265 62.2163 58.2331L62.2246 58.2381L62.2255 58.2386C62.2257 58.2388 62.2259 58.2389 62.2262 58.2391C62.2264 58.2392 62.2265 58.2393 62.2267 58.2394C62.7689 58.5752 63.4377 58.6358 64.0315 58.4027Z" fill="#C7F4C2" stroke="#C7F4C2" stroke-width="4.04771" stroke-linecap="round" stroke-linejoin="round"/>
<circle cx="97.9753" cy="146.228" r="8.62778" fill="#C7F4C2"/>
</svg>
