<svg width="91" height="84" viewBox="0 0 91 84" fill="none" xmlns="http://www.w3.org/2000/svg">
<path d="M33.9997 6.72715C39.111 -2.24238 51.889 -2.24238 57.0003 6.72715L89.2011 63.2352C94.3123 72.2048 87.9233 83.4167 77.7008 83.4167H13.2992C3.07673 83.4167 -3.31233 72.2047 1.79891 63.2352L33.9997 6.72715Z" fill="#E03E27" fill-opacity="0.92"/>
<path d="M7.58325 71.2473V65.0215C7.58325 62.7273 10.8981 62.4054 11.3395 64.6567L12.0469 68.2647C12.2247 69.1714 12.7275 69.982 13.4608 70.5442L17.1411 73.3658C18.8516 74.6772 17.3957 77.3718 15.3613 76.6597L10.1223 74.8261C8.60155 74.2938 7.58325 72.8585 7.58325 71.2473Z" fill="white"/>
<path d="M38.2317 27.1538C38.0604 23.7267 40.7929 20.8541 44.2242 20.8541H46.7759C50.2073 20.8541 52.9398 23.7266 52.7684 27.1538L51.8518 45.4871C51.6921 48.6803 49.0565 51.1875 45.8593 51.1875H45.1409C41.9437 51.1875 39.3081 48.6803 39.1484 45.4871L38.2317 27.1538Z" fill="#FDFBF7"/>
<circle cx="45.5" cy="62.5625" r="5.6875" fill="#FDFBF7"/>
</svg>
