<svg width="15" height="15" viewBox="0 0 15 15" fill="none" xmlns="http://www.w3.org/2000/svg">
<path fill-rule="evenodd" clip-rule="evenodd" d="M2.65106 4.84C2.85201 4.63713 3.17778 4.63574 3.37873 4.84139L7.86411 9.42017C8.06506 9.62513 8.06438 9.95626 7.86274 10.1598C7.76261 10.2609 7.63093 10.3125 7.49993 10.3125C7.36756 10.3125 7.23588 10.2609 7.13575 10.1584L2.65037 5.57966C2.44942 5.3747 2.45011 5.04356 2.65106 4.84ZM11.6206 4.84146C11.8215 4.63581 12.1473 4.6372 12.3483 4.84007C12.5499 5.04363 12.5506 5.37477 12.3503 5.57973L9.37172 8.62063C9.27159 8.7231 9.13922 8.77469 9.00754 8.77469C8.87655 8.77469 8.74486 8.7231 8.64473 8.62202C8.4431 8.41846 8.44241 8.08732 8.64267 7.88236L11.6206 4.84146Z" fill="#E4DFD3"/>
</svg>
