<svg width="15" height="15" viewBox="0 0 15 15" fill="none" xmlns="http://www.w3.org/2000/svg">
<path fill-rule="evenodd" clip-rule="evenodd" d="M3.32604 10.2057C3.12435 10.3626 2.83526 10.346 2.65106 10.16C2.45011 9.95644 2.44942 9.6253 2.65037 9.42034L7.13575 4.84157L7.1883 4.79457C7.2798 4.72332 7.38963 4.6875 7.49993 4.6875C7.63093 4.6875 7.76261 4.73909 7.86274 4.84017C8.06438 5.04374 8.06506 5.37487 7.86411 5.57983L3.37873 10.1586L3.32604 10.2057ZM12.3483 10.1599C12.1473 10.3628 11.8215 10.3642 11.6206 10.1585L8.64267 7.11764L8.59679 7.06392C8.44392 6.85838 8.4599 6.56458 8.64473 6.37798C8.74486 6.2769 8.87655 6.22531 9.00754 6.22531C9.13922 6.22531 9.27159 6.2769 9.37172 6.37937L12.3503 9.42027L12.3962 9.47399C12.5491 9.67953 12.5331 9.97333 12.3483 10.1599Z" fill="#E4DFD3"/>
</svg>
