<svg width="14" height="14" viewBox="0 0 14 14" fill="none" xmlns="http://www.w3.org/2000/svg">
<path fill-rule="evenodd" clip-rule="evenodd" d="M6.99984 2.04175C4.26176 2.04175 2.0415 4.26149 2.0415 7.00008C2.0415 9.73812 4.2618 11.9584 6.99984 11.9584C9.73843 11.9584 11.9582 9.73815 11.9582 7.00008C11.9582 4.26146 9.73846 2.04175 6.99984 2.04175ZM1.1665 7.00008C1.1665 3.77818 3.77858 1.16675 6.99984 1.16675C10.2217 1.16675 12.8332 3.77821 12.8332 7.00008C12.8332 10.2213 10.2217 12.8334 6.99984 12.8334C3.77855 12.8334 1.1665 10.2214 1.1665 7.00008Z" fill="#6D6D6D"/>
<path fill-rule="evenodd" clip-rule="evenodd" d="M6.802 4.13953C7.04363 4.13953 7.2395 4.3354 7.2395 4.57703V6.97403L9.45165 7.01017C9.69324 7.01411 9.88589 7.21316 9.88194 7.45476C9.878 7.69635 9.67895 7.889 9.43736 7.88505L6.79486 7.84188C6.55605 7.83798 6.3645 7.64328 6.3645 7.40444V4.57703C6.3645 4.3354 6.56038 4.13953 6.802 4.13953Z" fill="#6D6D6D"/>
</svg>
