<svg width="24" height="24" viewBox="0 0 24 24" fill="none" xmlns="http://www.w3.org/2000/svg">
<path d="M8.95582 8.42208C8.67864 8.14489 8.67864 7.69549 8.95582 7.4183C9.23301 7.14112 9.68241 7.14112 9.9596 7.4183L11.5867 9.04545V4.13653C11.5867 3.74487 11.9046 3.427 12.2963 3.427C12.6879 3.427 13.0058 3.74487 13.0058 4.13653V9.04545L14.633 7.4183C14.9102 7.14112 15.3595 7.14112 15.6367 7.4183C15.9139 7.69549 15.9139 8.14489 15.6367 8.42208L12.7986 11.2602C12.6605 11.3983 12.4789 11.4683 12.2972 11.4683C12.1156 11.4683 11.9339 11.3992 11.7958 11.2602L8.95582 8.42208ZM17.0255 10.0492C16.6338 10.0492 16.316 10.3671 16.316 10.7587C16.316 11.1504 16.6338 11.4683 17.0255 11.4683C18.7208 11.4683 20.1001 12.8476 20.1001 14.5429V15.4889C20.1001 17.1842 18.7208 18.5635 17.0255 18.5635H7.56518C5.8699 18.5635 4.49058 17.1842 4.49058 15.4889V14.5429C4.49058 12.8476 5.8699 11.4683 7.56518 11.4683C7.95684 11.4683 8.27471 11.1504 8.27471 10.7587C8.27471 10.3671 7.95684 10.0492 7.56518 10.0492C5.08753 10.0492 3.07153 12.0652 3.07153 14.5429V15.4889C3.07153 17.9666 5.08753 19.9826 7.56518 19.9826H17.0255C19.5032 19.9826 21.5192 17.9666 21.5192 15.4889V14.5429C21.5192 12.0652 19.5032 10.0492 17.0255 10.0492ZM17.9715 14.5429C17.9715 14.0207 17.5477 13.5968 17.0255 13.5968C16.5033 13.5968 16.0795 14.0207 16.0795 14.5429C16.0795 15.0651 16.5033 15.4889 17.0255 15.4889C17.5477 15.4889 17.9715 15.0651 17.9715 14.5429Z" fill="#292D32"/>
</svg>
