<svg width="38" height="38" viewBox="0 0 38 38" fill="none" xmlns="http://www.w3.org/2000/svg">
<circle cx="19" cy="19" r="18.5" stroke="#C7F4C2"/>
<g clip-path="url(#clip0_316_7082)">
<path d="M11.9413 26.3571L26.0842 26.3571C26.7942 26.3571 27.3699 25.7814 27.3699 25.0713L27.3699 10.9285C27.3699 10.2184 26.7942 9.64277 26.0842 9.64277L11.9413 9.64277C11.2312 9.64277 10.6556 10.2184 10.6556 10.9285L10.6556 25.0713C10.6556 25.7814 11.2312 26.3571 11.9413 26.3571Z" stroke="#C7F4C2" stroke-linecap="round" stroke-linejoin="round"/>
<path d="M21.8928 17.3571C23.1355 17.3571 24.1428 16.3497 24.1428 15.1071C24.1428 13.8644 23.1355 12.8571 21.8928 12.8571C20.6502 12.8571 19.6428 13.8644 19.6428 15.1071C19.6428 16.3497 20.6502 17.3571 21.8928 17.3571Z" stroke="#C7F4C2" stroke-linecap="round" stroke-linejoin="round"/>
<path d="M22.0857 26.3571C21.6717 24.1521 20.4877 22.1659 18.745 20.7529C17.0024 19.3399 14.8144 18.5921 12.5714 18.6428C11.9243 18.6411 11.2785 18.7013 10.6428 18.8228" stroke="#C7F4C2" stroke-linecap="round" stroke-linejoin="round"/>
<path d="M27.3572 21.7414C26.3217 21.3917 25.2359 21.2136 24.1429 21.2143C22.7594 21.2113 21.3899 21.4913 20.1187 22.0371" stroke="#C7F4C2" stroke-linecap="round" stroke-linejoin="round"/>
</g>
<defs>
<clipPath id="clip0_316_7082">
<rect width="18" height="18" fill="white" transform="translate(10 9)"/>
</clipPath>
</defs>
</svg>
