<svg width="257" height="257" viewBox="0 0 257 257" fill="none" xmlns="http://www.w3.org/2000/svg">
<path fill-rule="evenodd" clip-rule="evenodd" d="M57.5814 75.4607C58.3634 75.1874 59.2189 75.5998 59.4923 76.3818C59.7656 77.1639 59.3532 78.0194 58.5712 78.2927L58.0991 78.4577C47.672 82.102 42.1734 93.5093 45.8177 103.936L47.3354 108.279C47.5905 109.009 47.2056 109.807 46.4757 110.062C45.7458 110.317 44.9473 109.933 44.6922 109.203L43.1745 104.86C38.7943 92.3275 44.6168 79.9919 57.1093 75.6257L57.5814 75.4607ZM63.2683 75.0621C62.2661 72.1946 59.1291 70.6825 56.2616 71.6847L55.7896 71.8497C41.1715 76.9588 34.3035 91.6021 39.3985 106.18L40.9162 110.522C41.9002 113.338 44.9801 114.822 47.7955 113.838C50.6108 112.854 52.0954 109.774 51.1115 106.959L49.5938 102.617C46.6783 94.275 51.0771 85.1492 59.4189 82.2337L59.8909 82.0687C62.7584 81.0665 64.2705 77.9296 63.2683 75.0621ZM90.466 177.457L90.4671 177.459L90.4696 177.464C90.4668 177.46 90.4658 177.457 90.466 177.457ZM90.4748 177.472C90.4709 177.414 90.4529 176.966 91.2508 175.925C92.0851 174.836 93.5153 173.506 95.5558 171.993C96.9994 171.937 98.5354 171.815 100.147 171.632C108.906 170.64 120.364 167.806 132.478 163.397C140.764 160.381 148.332 157.001 154.632 153.614C154.873 154.59 155.168 155.563 155.52 156.529C155.919 157.627 156.38 158.685 156.898 159.7C150.623 162.931 143.001 166.256 134.627 169.304C122.703 173.643 111.603 176.567 103.317 177.804C99.1569 178.424 95.8121 178.603 93.4647 178.368C92.2859 178.25 91.4744 178.038 90.9669 177.803C90.6177 177.641 90.5042 177.514 90.4748 177.472ZM165.372 124.292C157.433 130.052 153.056 139.646 153.935 149.439C147.605 152.936 139.779 156.483 131.109 159.638C119.202 163.972 108.06 166.71 99.697 167.658C95.4996 168.133 92.116 168.144 89.7247 167.737C87.1562 167.301 86.4898 166.53 86.3675 166.193L78.1374 143.582C78.418 143.623 78.7041 143.658 78.9948 143.687C81.8208 143.97 85.5405 143.74 89.8353 143.099C98.4582 141.812 109.826 138.804 121.924 134.401C134.021 129.998 144.663 124.995 152.096 120.438C155.798 118.168 158.795 115.954 160.778 113.92C160.982 113.711 161.179 113.501 161.367 113.288L165.372 124.292ZM163.389 107.147L168.846 122.142C169.934 121.575 171.071 121.072 172.254 120.641C186.786 115.352 202.853 122.845 208.142 137.376C213.431 151.908 205.939 167.975 191.408 173.264C190.178 173.712 188.937 174.068 187.693 174.336C187.928 176.517 186.673 178.686 185.138 180.492C183.219 182.751 180.269 185.159 176.609 187.585C169.262 192.455 158.663 197.649 146.549 202.058C134.435 206.468 122.977 209.301 114.219 210.293C109.856 210.788 106.048 210.839 103.126 210.342C100.381 209.876 97.6104 208.778 96.6803 206.223L86.7129 178.838L86.7128 178.838C85.9996 176.878 86.961 174.947 88.0758 173.492C88.5086 172.927 89.0261 172.352 89.6179 171.768C89.4266 171.741 89.2387 171.712 89.0544 171.681C86.3091 171.214 83.5388 170.117 82.6087 167.562L72.6414 140.177L72.6413 140.176C71.9427 138.257 72.8533 136.365 73.9264 134.934C74.3759 134.334 74.9209 133.724 75.5489 133.105C75.3571 133.078 75.1688 133.048 74.9839 133.017C72.2387 132.55 69.4684 131.453 68.5383 128.898L58.5708 101.512C58.4402 101.153 58.4187 100.781 58.4895 100.433C57.0099 95.017 75.4939 83.4952 100.133 74.5273C124.769 65.5605 146.332 62.5051 148.685 67.602C148.964 67.8239 149.187 68.1232 149.318 68.483L159.286 95.8683C160.216 98.4237 158.799 101.045 156.996 103.167C156.874 103.31 156.748 103.454 156.618 103.599C157.305 103.654 157.947 103.738 158.541 103.852C160.469 104.224 162.634 105.074 163.389 107.147L163.389 107.147ZM158.97 163.132C164.59 171.083 174.017 175.554 183.713 174.897C183.7 175.407 183.396 176.365 182.09 177.902C180.519 179.751 177.92 181.918 174.399 184.251C167.384 188.901 157.088 193.966 145.181 198.3C133.274 202.634 122.131 205.371 113.769 206.319C109.571 206.794 106.188 206.805 103.796 206.399C101.228 205.962 100.561 205.191 100.439 204.855L92.2089 182.243C92.4895 182.284 92.7756 182.319 93.0663 182.348C95.8923 182.631 99.612 182.401 103.907 181.76C112.53 180.473 123.898 177.465 135.995 173.062C144.608 169.927 152.476 166.491 158.97 163.132ZM63.3959 103.074L72.297 127.53C72.4194 127.866 73.0858 128.637 75.6543 129.074C78.0456 129.48 81.4292 129.469 85.6265 128.994C93.9892 128.046 105.132 125.308 117.039 120.974C128.946 116.641 139.242 111.576 146.257 106.926C147.947 105.806 149.425 104.724 150.679 103.697L150.678 103.69L150.689 103.689C152.042 102.58 153.133 101.536 153.948 100.577C155.635 98.5917 155.649 97.5724 155.527 97.2364L146.626 72.7802C141.077 78.745 125.902 87.0397 107.169 93.8581C88.4366 100.676 71.4808 104.076 63.3959 103.074ZM157.784 107.78C156.442 107.521 154.573 107.446 152.213 107.588C151.071 108.472 149.818 109.365 148.467 110.26C141.12 115.13 130.521 120.324 118.407 124.733C106.293 129.142 94.8354 131.976 86.0769 132.968C84.4059 133.158 82.8165 133.282 81.3271 133.335L81.3816 133.408C79.3459 134.927 77.9353 136.255 77.1266 137.334C76.3837 138.324 76.3988 138.752 76.4033 138.811C76.4326 138.853 76.546 138.98 76.8954 139.142C77.4029 139.377 78.2144 139.589 79.3932 139.707C81.7406 139.942 85.0854 139.763 89.245 139.143C97.5312 137.906 108.632 134.982 120.556 130.642C132.48 126.302 142.863 121.407 150.005 117.028C153.591 114.829 156.268 112.816 157.915 111.127C158.742 110.279 159.227 109.595 159.465 109.089C159.629 108.74 159.634 108.57 159.629 108.519L159.629 108.519C159.593 108.472 159.284 108.069 157.784 107.78ZM159.626 108.502C159.627 108.502 159.627 108.505 159.628 108.51C159.627 108.505 159.626 108.502 159.626 108.502ZM76.3981 138.803C76.3953 138.799 76.3943 138.796 76.3945 138.796C76.3947 138.796 76.3961 138.798 76.3981 138.803ZM173.623 124.4C161.167 128.934 154.745 142.706 159.278 155.161C163.812 167.617 177.584 174.039 190.039 169.505C202.495 164.972 208.917 151.2 204.384 138.744C199.85 126.289 186.078 119.867 173.623 124.4ZM184.909 155.41C186.207 154.938 186.876 153.503 186.403 152.206C185.931 150.908 184.497 150.239 183.199 150.711C181.902 151.184 181.233 152.618 181.705 153.916C182.177 155.213 183.612 155.882 184.909 155.41ZM179.095 139.435C175.88 140.605 173.568 143.155 172.586 146.181C172.244 147.231 171.116 147.806 170.066 147.465C169.015 147.124 168.44 145.996 168.781 144.945C170.128 140.799 173.306 137.285 177.727 135.676C182.147 134.067 186.84 134.716 190.537 137.027C191.474 137.612 191.759 138.846 191.173 139.783C190.588 140.719 189.354 141.004 188.417 140.419C185.72 138.733 182.309 138.265 179.095 139.435ZM177.64 151.296C178.273 149.347 179.762 147.706 181.831 146.953C183.9 146.2 186.095 146.5 187.834 147.586C188.77 148.172 190.004 147.887 190.59 146.95C191.175 146.013 190.89 144.78 189.954 144.194C187.216 142.483 183.738 142.002 180.463 143.194C177.188 144.386 174.833 146.99 173.836 150.061C173.494 151.111 174.069 152.239 175.12 152.581C176.171 152.922 177.299 152.347 177.64 151.296Z" fill="#C7F4C2"/>
</svg>
