<svg width="22" height="22" viewBox="0 0 22 22" fill="none" xmlns="http://www.w3.org/2000/svg">
<g clip-path="url(#clip0_45_2940)">
<path d="M5.50007 11.7858C5.93401 11.7858 6.28578 11.434 6.28578 11.0001C6.28578 10.5661 5.93401 10.2144 5.50007 10.2144C5.06613 10.2144 4.71436 10.5661 4.71436 11.0001C4.71436 11.434 5.06613 11.7858 5.50007 11.7858Z" stroke="#484848" stroke-width="1.5" stroke-linecap="round" stroke-linejoin="round"/>
<path d="M10.6072 11.7858C11.0412 11.7858 11.393 11.434 11.393 11.0001C11.393 10.5661 11.0412 10.2144 10.6072 10.2144C10.1733 10.2144 9.82153 10.5661 9.82153 11.0001C9.82153 11.434 10.1733 11.7858 10.6072 11.7858Z" stroke="#484848" stroke-width="1.5" stroke-linecap="round" stroke-linejoin="round"/>
<path d="M15.7143 11.7858C16.1482 11.7858 16.5 11.434 16.5 11.0001C16.5 10.5661 16.1482 10.2144 15.7143 10.2144C15.2804 10.2144 14.9286 10.5661 14.9286 11.0001C14.9286 11.434 15.2804 11.7858 15.7143 11.7858Z" stroke="#484848" stroke-width="1.5" stroke-linecap="round" stroke-linejoin="round"/>
<path d="M11.0001 0.785768C9.15243 0.786344 7.33956 1.28806 5.75453 2.23747C4.1695 3.18689 2.87168 4.54845 1.99928 6.17714C1.12688 7.80583 0.712587 9.64066 0.800521 11.4862C0.888455 13.3317 1.47533 15.1188 2.49862 16.6572L0.785767 21.2143L6.52148 20.1772C7.90262 20.8521 9.41829 21.2066 10.9555 21.2142C12.4927 21.2218 14.0118 20.8824 15.3996 20.2212C16.7873 19.56 18.0079 18.594 18.9704 17.3954C19.9329 16.1968 20.6125 14.7964 20.9584 13.2986C21.3043 11.8008 21.3077 10.2442 20.9683 8.74494C20.6289 7.24565 19.9555 5.84229 18.9983 4.63948C18.041 3.43668 16.8246 2.46545 15.4397 1.79819C14.0549 1.13093 12.5373 0.784861 11.0001 0.785768V0.785768Z" stroke="#484848" stroke-width="1.5" stroke-linecap="round" stroke-linejoin="round"/>
</g>
<defs>
<clipPath id="clip0_45_2940">
<rect width="22" height="22" fill="white"/>
</clipPath>
</defs>
</svg>
