<svg width="19" height="19" viewBox="0 0 19 19" fill="none" xmlns="http://www.w3.org/2000/svg">
<path d="M8.46863 14.9313V4.06875C8.46863 3.0375 8.03321 2.625 6.93321 2.625H4.16029C3.06029 2.625 2.62488 3.0375 2.62488 4.06875V14.9313C2.62488 15.9625 3.06029 16.375 4.16029 16.375H6.93321C8.03321 16.375 8.46863 15.9625 8.46863 14.9313Z" fill="white"/>
<path d="M16.3751 14.9313V4.06875C16.3751 3.0375 15.9396 2.625 14.8396 2.625H12.0667C10.9744 2.625 10.5313 3.0375 10.5313 4.06875V14.9313C10.5313 15.9625 10.9667 16.375 12.0667 16.375H14.8396C15.9396 16.375 16.3751 15.9625 16.3751 14.9313Z" fill="white"/>
</svg>
