<svg width="38" height="38" viewBox="0 0 38 38" fill="none" xmlns="http://www.w3.org/2000/svg">
<circle cx="19" cy="19" r="18.5" stroke="#C7F4C2"/>
<path fill-rule="evenodd" clip-rule="evenodd" d="M12.0002 25.9042L12.0933 22.1942C12.1123 21.4551 12.4108 20.7601 12.9337 20.2381L20.2837 12.9C21.4847 11.7 23.4389 11.7 24.6408 12.9L25.8378 14.095C26.4207 14.676 26.7403 15.4501 26.7403 16.2701C26.7403 17.0921 26.4207 17.8651 25.8378 18.4461L18.4537 25.8182C17.9108 26.3602 17.1896 26.6582 16.4234 26.6582H12.7374C12.539 26.6582 12.3487 26.5782 12.2095 26.4352C12.0713 26.2932 11.9961 26.1022 12.0002 25.9042ZM13.9774 21.2791C13.722 21.5331 13.5777 21.8721 13.5677 22.2312L13.4946 25.1852H16.4234C16.796 25.1852 17.1466 25.0412 17.411 24.7772L24.7951 17.4051C25.4211 16.7791 25.4211 15.7621 24.7951 15.137L23.5981 13.941C22.9711 13.316 21.9524 13.316 21.3264 13.941L20.7214 14.545L22.5955 16.4161C22.8829 16.7041 22.8829 17.1691 22.5955 17.4581C22.4512 17.6011 22.2619 17.6731 22.0736 17.6731C21.8843 17.6731 21.696 17.6011 21.5518 17.4581L19.6787 15.5861L13.9774 21.2791Z" fill="#C7F4C2"/>
</svg>
