<svg width="13" height="13" viewBox="0 0 13 13" fill="none" xmlns="http://www.w3.org/2000/svg">
<path fill-rule="evenodd" clip-rule="evenodd" d="M1.08325 6.50318C1.08325 3.51343 3.51448 1.08337 6.49992 1.08337C9.48536 1.08337 11.9166 3.51343 11.9166 6.50318C11.9166 9.48665 9.48536 11.9167 6.49992 11.9167C3.51448 11.9167 1.08325 9.48665 1.08325 6.50318ZM8.48673 7.05137C8.54424 6.99389 8.61744 6.90505 8.63312 6.88415C8.71678 6.7744 8.75861 6.63853 8.75861 6.50318C8.75861 6.3511 8.71155 6.21 8.62267 6.09503C8.61538 6.08775 8.60112 6.07223 8.58253 6.05199C8.54775 6.01414 8.49783 5.9598 8.45013 5.91212C8.0214 5.45224 6.90251 4.69971 6.31692 4.46977C6.22804 4.43371 6.00322 4.3548 5.88296 4.34957C5.76794 4.34957 5.65814 4.3757 5.55357 4.42796C5.42286 4.50113 5.31829 4.6161 5.26078 4.75197C5.22418 4.84604 5.16667 5.12824 5.16667 5.13346C5.10915 5.44179 5.07778 5.94348 5.07778 6.49743C5.07778 7.02577 5.10915 7.50603 5.15621 7.81959C5.1575 7.82088 5.162 7.8433 5.16899 7.87814C5.19023 7.98406 5.23448 8.2047 5.28169 8.29514C5.39672 8.51463 5.62154 8.65051 5.86205 8.65051H5.88296C6.03982 8.64528 6.36921 8.50941 6.36921 8.50418C6.92342 8.27424 8.01617 7.55829 8.45536 7.08273L8.48673 7.05137Z" fill="#6D6D6D"/>
</svg>
