<svg width="27" height="28" viewBox="0 0 27 28" fill="none" xmlns="http://www.w3.org/2000/svg">
<path fill-rule="evenodd" clip-rule="evenodd" d="M13.1754 25.301C9.17595 25.301 5.7605 24.6547 5.7605 22.0663C5.7605 19.4779 9.15429 17.0885 13.1754 17.0885C17.1749 17.0885 20.5903 19.4548 20.5903 22.0432C20.5903 24.6305 17.1966 25.301 13.1754 25.301Z" stroke="#6D6D6D" stroke-width="2" stroke-linecap="round" stroke-linejoin="round"/>
<path fill-rule="evenodd" clip-rule="evenodd" d="M13.1675 13.5017C15.7921 13.5017 17.9194 11.2926 17.9194 8.56703C17.9194 5.84146 15.7921 3.63135 13.1675 3.63135C10.5428 3.63135 8.41458 5.84146 8.41458 8.56703C8.40571 11.2834 10.5182 13.4925 13.134 13.5017C13.1458 13.5017 13.1566 13.5017 13.1675 13.5017Z" stroke="#6D6D6D" stroke-width="2" stroke-linecap="round" stroke-linejoin="round"/>
</svg>
