<svg width="14" height="14" viewBox="0 0 14 14" fill="none" xmlns="http://www.w3.org/2000/svg">
<g clip-path="url(#clip0_45_2938)">
<path d="M13.0055 5.42823C13.1616 5.36315 13.2624 5.33425 13.3551 5.24158C13.4479 5.1489 13.5 5.02322 13.5 4.89216C13.5 4.7611 13.4479 4.63541 13.3551 4.54274C13.2624 4.45007 13.2311 4.39455 13.0055 4.32837C12.7798 4.26219 1.8094 0.553527 1.8094 0.553527C1.63434 0.493635 1.44597 0.484018 1.2657 0.525769C1.08544 0.567521 0.920516 0.658965 0.789671 0.78971C0.658827 0.920455 0.567312 1.08526 0.525529 1.26538C0.483746 1.44551 0.49337 1.63373 0.553308 1.80867C0.553308 1.80867 4.34968 12.8559 4.39606 13.0061C4.44244 13.1563 4.50227 13.2628 4.59501 13.3555C4.68775 13.4482 4.81354 13.5002 4.94469 13.5002C5.07585 13.5002 5.20163 13.4482 5.29438 13.3555C5.38712 13.2628 5.40831 13.2103 5.47784 13.0061C5.54736 12.8019 7.41732 7.41232 7.41732 7.41232C7.41732 7.41232 12.8494 5.49331 13.0055 5.42823Z" stroke="#6D6D6D" stroke-linecap="round" stroke-linejoin="round"/>
</g>
<defs>
<clipPath id="clip0_45_2938">
<rect width="14" height="14" fill="white"/>
</clipPath>
</defs>
</svg>
