<svg width="24" height="24" viewBox="0 0 24 24" fill="none" xmlns="http://www.w3.org/2000/svg">
<path d="M16.7485 13.4364C15.6757 13.4364 14.7153 13.9146 14.078 14.664L9.93272 12.3647C10.0616 12.0103 10.1325 11.6292 10.1325 11.2321C10.1325 10.835 10.0616 10.454 9.93272 10.0996L14.0777 7.79965C14.7148 8.54936 15.6754 9.02765 16.7483 9.02765C18.662 9.02765 20.2189 7.506 20.2189 5.63557C20.2191 3.76568 18.6622 2.24451 16.7485 2.24451C14.8345 2.24451 13.2774 3.76568 13.2774 5.63549C13.2774 6.03261 13.3482 6.41375 13.4772 6.76824L9.33199 9.06823C8.69482 8.31892 7.7345 7.84095 6.66194 7.84095C4.74776 7.84095 3.19043 9.36212 3.19043 11.232C3.19043 13.1018 4.74776 14.623 6.66194 14.623C7.7345 14.623 8.69474 14.145 9.33191 13.3958L13.4772 15.6952C13.3482 16.0497 13.2774 16.4309 13.2774 16.8281C13.2774 18.6979 14.8344 20.2191 16.7484 20.2191C18.6621 20.2191 20.219 18.6979 20.219 16.8281C20.2191 14.958 18.6622 13.4364 16.7485 13.4364ZM16.7485 3.43113C17.9924 3.43113 19.0045 4.41999 19.0045 5.63549C19.0045 6.85162 17.9924 7.84095 16.7485 7.84095C15.5042 7.84095 14.492 6.85162 14.492 5.63549C14.492 4.41999 15.5042 3.43113 16.7485 3.43113ZM6.66202 13.4364C5.41756 13.4364 4.40509 12.4475 4.40509 11.2321C4.40509 10.0165 5.41756 9.02765 6.66202 9.02765C7.906 9.02765 8.91798 10.0165 8.91798 11.2321C8.91798 12.4475 7.90591 13.4364 6.66202 13.4364ZM16.7485 19.0326C15.5042 19.0326 14.492 18.0436 14.492 16.8282C14.492 15.6123 15.5042 14.6231 16.7485 14.6231C17.9924 14.6231 19.0045 15.6123 19.0045 16.8282C19.0045 18.0436 17.9924 19.0326 16.7485 19.0326Z" fill="#292D32"/>
</svg>
