<svg width="16" height="15" viewBox="0 0 16 15" fill="none" xmlns="http://www.w3.org/2000/svg">
<path d="M8.54353 1.32722L10.2599 4.68242C10.2989 4.76758 10.3603 4.84135 10.438 4.89637C10.5156 4.95139 10.6068 4.98574 10.7025 4.99599L14.4914 5.53952C14.6011 5.55317 14.7045 5.59676 14.7896 5.66521C14.8747 5.73366 14.9379 5.82413 14.9719 5.92606C15.0058 6.02799 15.0091 6.13717 14.9814 6.24085C14.9537 6.34453 14.896 6.43843 14.8152 6.51158L12.0842 9.13512C12.0145 9.19818 11.9622 9.2771 11.932 9.36473C11.9018 9.45235 11.8948 9.54589 11.9115 9.63683L12.5699 13.3265C12.589 13.4325 12.577 13.5416 12.5352 13.6413C12.4934 13.741 12.4235 13.8274 12.3335 13.8905C12.2435 13.9537 12.1371 13.9912 12.0262 13.9986C11.9153 14.0061 11.8045 13.9833 11.7064 13.9327L8.29526 12.1872C8.20791 12.1457 8.1119 12.1241 8.0146 12.1241C7.91729 12.1241 7.82128 12.1457 7.73393 12.1872L4.32282 13.9327C4.22468 13.9833 4.11387 14.0061 4.003 13.9986C3.89213 13.9912 3.78564 13.9537 3.69566 13.8905C3.60568 13.8274 3.53582 13.741 3.49403 13.6413C3.45223 13.5416 3.44018 13.4325 3.45924 13.3265L4.11772 9.59502C4.13441 9.50408 4.12735 9.41054 4.09718 9.32292C4.06702 9.2353 4.01471 9.15637 3.945 9.09331L1.18157 6.51158C1.09981 6.43643 1.04232 6.33993 1.01605 6.23377C0.989778 6.12762 0.995861 6.01637 1.03356 5.9135C1.07126 5.81063 1.13896 5.72054 1.22845 5.65417C1.31795 5.58779 1.4254 5.54796 1.53779 5.53952L5.32672 4.99599C5.42236 4.98574 5.51355 4.95139 5.59121 4.89637C5.66886 4.84135 5.73027 4.76758 5.7693 4.68242L7.48566 1.32722C7.5324 1.2295 7.60703 1.14677 7.70076 1.08879C7.79448 1.03081 7.90338 1 8.0146 1C8.12582 1 8.23471 1.03081 8.32844 1.08879C8.42216 1.14677 8.49679 1.2295 8.54353 1.32722Z" stroke="#484848" stroke-width="1.5" stroke-linecap="round" stroke-linejoin="round"/>
</svg>
