<svg width="11" height="11" viewBox="0 0 11 11" fill="none" xmlns="http://www.w3.org/2000/svg">
<path fill-rule="evenodd" clip-rule="evenodd" d="M5.4 10C4.31508 10 3.38255 9.35215 2.96613 8.42432C2.93998 8.36604 2.90324 8.32172 2.86884 8.29542C2.83663 8.27078 2.8139 8.26667 2.8 8.26667C1.80589 8.26667 1 7.46078 1 6.46667C1 5.91745 1.24597 5.42569 1.63377 5.09553L2.34607 5.80783C2.137 5.95215 2 6.19341 2 6.46667C2 6.90849 2.35817 7.26667 2.8 7.26667C3.3327 7.26667 3.71126 7.64231 3.87846 8.01485C4.13951 8.59652 4.72318 9 5.4 9C6.07682 9 6.66049 8.59652 6.92154 8.01485C7.08874 7.64231 7.4673 7.26667 8 7.26667C8.44183 7.26667 8.8 6.90849 8.8 6.46667C8.8 6.19341 8.663 5.95215 8.45393 5.80783L9.16623 5.09553C9.55403 5.42569 9.8 5.91745 9.8 6.46667C9.8 7.46078 8.99411 8.26667 8 8.26667C7.9861 8.26667 7.96337 8.27078 7.93116 8.29542C7.89676 8.32172 7.86002 8.36604 7.83387 8.42432C7.41745 9.35215 6.48492 10 5.4 10Z" fill="white"/>
<path d="M5.39984 5.6001L5.04628 5.95365L5.39984 6.3072L5.75339 5.95365L5.39984 5.6001ZM5.89984 1.7001C5.89984 1.42396 5.67598 1.2001 5.39984 1.2001C5.1237 1.2001 4.89984 1.42396 4.89984 1.7001L5.89984 1.7001ZM3.31295 4.22032L5.04628 5.95365L5.75339 5.24654L4.02006 3.51321L3.31295 4.22032ZM5.75339 5.95365L7.48672 4.22032L6.77962 3.51321L5.04628 5.24654L5.75339 5.95365ZM5.89984 5.6001L5.89984 1.7001L4.89984 1.7001L4.89984 5.6001L5.89984 5.6001Z" fill="white"/>
</svg>
