<svg width="38" height="38" viewBox="0 0 38 38" fill="none" xmlns="http://www.w3.org/2000/svg">
<circle cx="19" cy="19" r="18.5" stroke="#C7F4C2"/>
<path fill-rule="evenodd" clip-rule="evenodd" d="M19.124 21.3915H18.8754C16.4985 21.3915 14.5648 19.4155 14.5648 16.9876V12.4038C14.5648 9.97592 16.4985 8 18.8754 8H19.124C21.5009 8 23.4346 9.97592 23.4346 12.4038V12.9118C23.4346 13.3088 23.1195 13.6308 22.731 13.6308H20.8551C20.4666 13.6308 20.1515 13.3088 20.1515 12.9118C20.1515 12.5148 20.4666 12.1928 20.8551 12.1928H22.0196C21.9129 10.6559 20.6554 9.43894 19.124 9.43894H18.8754C17.2745 9.43894 15.973 10.7689 15.973 12.4038V16.9876C15.973 18.6226 17.2745 19.9525 18.8754 19.9525H19.124C20.7249 19.9525 22.0264 18.6226 22.0264 16.9876V16.8236H19.9166C19.5281 16.8236 19.213 16.5007 19.213 16.1047C19.213 15.7067 19.5281 15.3847 19.9166 15.3847H22.731C23.1195 15.3847 23.4346 15.7067 23.4346 16.1047V16.9876C23.4346 19.4155 21.5009 21.3915 19.124 21.3915ZM16.0798 23.0359C13.8144 21.8899 12.4082 19.575 12.4082 16.9941C12.4082 16.5972 12.0921 16.2742 11.7036 16.2742C11.3151 16.2742 11 16.5972 11 16.9941C11 20.126 12.7076 22.9349 15.4554 24.3238C15.5552 24.3758 15.6619 24.3988 15.7666 24.3988C16.0259 24.3988 16.2755 24.2528 16.3988 23.9999C16.571 23.6419 16.4271 23.2119 16.0798 23.0359ZM26.2964 16.2745C25.9079 16.2745 25.5928 16.5965 25.5928 16.9944C25.5928 20.7083 22.6346 23.7302 19.0002 23.7302C18.6107 23.7302 18.2966 24.0522 18.2966 24.4501V27.28C18.2966 27.677 18.6107 28 19.0002 28C19.3887 28 19.7038 27.677 19.7038 27.28V25.1321C23.7864 24.7661 27 21.2583 27 16.9944C27 16.5965 26.6849 16.2745 26.2964 16.2745Z" fill="#C7F4C2"/>
</svg>
